<svg width="882" height="335" viewBox="0 0 882 335" fill="none" xmlns="http://www.w3.org/2000/svg">
<path d="M286.006 28.5459L250.935 103.699" stroke="#8574A3" stroke-width="8"/>
<path d="M309.805 51.0918L296.027 82.4056" stroke="#8574A3" stroke-width="8"/>
<circle cx="225.884" cy="118.73" r="108.73" stroke="#8574A3" stroke-width="8"/>
<path d="M119.417 94.9312L182.045 218.934" stroke="#8574A3" stroke-width="8"/>
<path d="M135.7 59.8596L222.126 226.449" stroke="#8574A3" stroke-width="8"/>
<path d="M154.488 36.0612L249.682 225.196" stroke="#8574A3" stroke-width="8"/>
<path d="M179.539 22.2831L279.743 211.418" stroke="#8574A3" stroke-width="8"/>
<path d="M218.368 9.75769L195.823 53.597" stroke="#8574A3" stroke-width="8"/>
<path d="M253.44 13.5153L218.368 94.9311" stroke="#8574A3" stroke-width="8"/>
<path d="M322.33 69.8801L229.641 113.719" stroke="#8574A3" stroke-width="8"/>
<path d="M333.603 132.508L258.45 168.832" stroke="#8574A3" stroke-width="8"/>
<path d="M270.976 192.63L323.583 167.579" stroke="#8574A3" stroke-width="8"/>
<path d="M332.351 98.6887L244.672 140.023" stroke="#8574A3" stroke-width="8"/>
<path d="M162.002 207.66C45.5161 196.388 -106.043 275.298 123.173 282.813C277.238 279.056 265.964 322.895 254.691 330.41" stroke="#8574A3" stroke-width="8" stroke-linecap="round"/>
<path d="M414.296 275.832V214.062H454.838V219.456H420.386V242.163H449.444V247.209H420.386V275.832H414.296ZM499.893 275.832V214.062H505.983V275.832H499.893ZM580.72 276.267C576.37 276.267 572.426 275.397 568.888 273.657C565.35 271.917 562.305 269.568 559.753 266.61C557.201 263.594 555.229 260.23 553.837 256.518C552.445 252.748 551.749 248.891 551.749 244.947C551.749 240.829 552.474 236.914 553.924 233.202C555.374 229.432 557.404 226.097 560.014 223.197C562.682 220.239 565.785 217.919 569.323 216.237C572.861 214.497 576.689 213.627 580.807 213.627C585.157 213.627 589.101 214.526 592.639 216.324C596.177 218.122 599.193 220.529 601.687 223.545C604.239 226.561 606.211 229.925 607.603 233.637C608.995 237.349 609.691 241.148 609.691 245.034C609.691 249.152 608.966 253.096 607.516 256.866C606.066 260.578 604.036 263.913 601.426 266.871C598.816 269.771 595.742 272.062 592.204 273.744C588.666 275.426 584.838 276.267 580.72 276.267ZM557.839 244.947C557.839 248.311 558.39 251.559 559.492 254.691C560.594 257.765 562.16 260.52 564.19 262.956C566.22 265.334 568.627 267.248 571.411 268.698C574.253 270.09 577.356 270.786 580.72 270.786C584.258 270.786 587.419 270.061 590.203 268.611C593.045 267.103 595.452 265.131 597.424 262.695C599.454 260.201 600.991 257.417 602.035 254.343C603.079 251.269 603.601 248.137 603.601 244.947C603.601 241.583 603.05 238.364 601.948 235.29C600.846 232.216 599.251 229.461 597.163 227.025C595.133 224.589 592.726 222.675 589.942 221.283C587.158 219.891 584.084 219.195 580.72 219.195C577.24 219.195 574.079 219.92 571.237 221.37C568.453 222.82 566.046 224.792 564.016 227.286C562.044 229.722 560.507 232.477 559.405 235.551C558.361 238.625 557.839 241.757 557.839 244.947ZM691.643 225.633C690.773 224.647 689.758 223.777 688.598 223.023C687.438 222.211 686.133 221.515 684.683 220.935C683.233 220.355 681.667 219.891 679.985 219.543C678.361 219.195 676.621 219.021 674.765 219.021C669.371 219.021 665.398 220.065 662.846 222.153C660.352 224.183 659.105 226.967 659.105 230.505C659.105 232.941 659.685 234.855 660.845 236.247C662.063 237.639 663.948 238.77 666.5 239.64C669.052 240.51 672.3 241.409 676.244 242.337C680.652 243.265 684.451 244.367 687.641 245.643C690.831 246.919 693.296 248.659 695.036 250.863C696.776 253.009 697.646 255.938 697.646 259.65C697.646 262.492 697.095 264.957 695.993 267.045C694.891 269.133 693.354 270.873 691.382 272.265C689.41 273.657 687.061 274.701 684.335 275.397C681.609 276.035 678.622 276.354 675.374 276.354C672.184 276.354 669.11 276.035 666.152 275.397C663.252 274.701 660.497 273.715 657.887 272.439C655.277 271.105 652.841 269.423 650.579 267.393L653.624 262.434C654.726 263.594 656.031 264.696 657.539 265.74C659.105 266.726 660.816 267.625 662.672 268.437C664.586 269.249 666.616 269.887 668.762 270.351C670.966 270.757 673.228 270.96 675.548 270.96C680.478 270.96 684.306 270.061 687.032 268.263C689.816 266.465 691.208 263.797 691.208 260.259C691.208 257.707 690.512 255.677 689.12 254.169C687.728 252.603 685.64 251.327 682.856 250.341C680.072 249.355 676.65 248.398 672.59 247.47C668.298 246.484 664.673 245.382 661.715 244.164C658.757 242.946 656.524 241.351 655.016 239.379C653.566 237.349 652.841 234.681 652.841 231.375C652.841 227.547 653.769 224.328 655.625 221.718C657.539 219.05 660.149 217.049 663.455 215.715C666.761 214.323 670.56 213.627 674.852 213.627C677.578 213.627 680.101 213.917 682.421 214.497C684.799 215.019 686.974 215.802 688.946 216.846C690.976 217.89 692.861 219.195 694.601 220.761L691.643 225.633Z" fill="#8574A3"/>
<path d="M463.619 147.708C463.619 148.52 463.348 149.264 462.807 149.941C455.769 155.896 449.815 160.768 444.943 164.557C440.071 168.346 436.214 171.188 433.372 173.083C419.838 182.15 407.591 186.819 396.629 187.09C387.291 187.09 382.554 182.286 382.419 172.677C382.419 166.722 385.87 159.753 392.772 151.768C400.08 144.189 406.305 140.332 411.448 140.197C413.207 140.197 414.763 140.874 416.117 142.227C417.335 143.31 418.079 144.663 418.35 146.287C418.35 148.723 417.132 151.159 414.696 153.595C413.342 154.678 412.057 155.76 410.839 156.843C409.621 157.79 408.335 158.805 406.982 159.888C402.922 163.407 397.711 166.722 391.351 169.835C391.215 173.083 392.569 175.79 395.411 177.955C397.711 179.444 400.215 180.188 402.922 180.188C409.959 180.188 420.447 175.654 434.387 166.587C435.74 165.64 438.65 163.542 443.116 160.294C447.582 157.046 453.672 152.512 461.386 146.693C461.792 146.558 462.265 146.49 462.807 146.49C463.213 146.49 463.483 146.896 463.619 147.708ZM409.418 148.52C409.418 147.843 408.538 147.302 406.779 146.896C404.478 146.896 401.433 148.994 397.644 153.189C393.854 156.978 391.96 160.362 391.96 163.339C392.636 163.339 393.854 163.001 395.614 162.324C404.41 157.181 409.012 152.58 409.418 148.52ZM558.539 147.708C558.539 148.52 558.268 149.264 557.727 149.941C544.599 160.768 535.397 167.94 530.119 171.459C517.803 179.85 507.18 184.045 498.248 184.045C490.669 184.045 486.812 179.985 486.677 171.865C486.677 170.376 486.812 168.549 487.083 166.384C487.489 164.083 488.098 161.377 488.91 158.264C483.767 161.241 478.489 164.354 473.076 167.602C467.798 170.715 462.317 174.166 456.633 177.955C448.648 183.233 444.317 185.872 443.641 185.872C443.505 185.872 442.964 185.601 442.017 185.06C441.205 184.654 440.799 184.18 440.799 183.639C440.799 182.692 441.408 181.135 442.626 178.97C443.708 176.805 445.603 173.827 448.31 170.038C451.152 165.843 453.385 162.527 455.009 160.091C456.768 157.52 457.986 155.693 458.663 154.61C458.121 153.798 457.851 152.648 457.851 151.159C457.851 150.076 458.73 148.926 460.49 147.708C462.384 146.625 463.873 146.016 464.956 145.881C469.286 145.881 471.587 147.64 471.858 151.159C471.858 152.106 469.692 155.557 465.362 161.512C463.332 164.083 461.572 166.249 460.084 168.008C458.73 169.767 457.512 171.188 456.43 172.271C482.143 154.678 498.721 145.881 506.165 145.881C506.841 145.881 507.383 146.761 507.789 148.52C507.789 148.791 505.691 151.294 501.496 156.031C497.571 160.903 495.541 165.504 495.406 169.835C495.406 174.707 498.857 177.211 505.759 177.346C510.901 177.346 519.495 173.286 531.54 165.166C533.84 163.813 542.096 157.723 556.306 146.896C556.712 146.761 557.185 146.693 557.727 146.693C558.133 146.693 558.403 147.031 558.539 147.708ZM660.196 103.251C660.196 105.958 657.489 107.514 652.076 107.92H642.129H599.499C581.229 127.408 571.349 137.896 569.861 139.385C556.192 155.084 549.358 166.249 549.358 172.88C549.358 177.211 552.267 179.376 558.087 179.376C565.53 179.376 575.68 175.045 588.537 166.384C592.867 163.271 597.13 160.159 601.326 157.046C605.656 153.798 610.055 150.415 614.521 146.896C614.656 146.625 615.062 146.49 615.739 146.49C616.145 146.49 616.415 146.964 616.551 147.911C616.551 148.723 616.28 149.467 615.739 150.144C608.701 155.828 602.747 160.632 597.875 164.557C593.138 168.346 589.281 171.256 586.304 173.286C572.906 182.489 561.673 187.158 552.606 187.293C549.358 187.293 546.719 186.075 544.689 183.639C542.523 181.068 541.441 178.023 541.441 174.504C541.441 166.384 548.275 154.61 561.944 139.182C566.951 134.039 571.891 128.897 576.763 123.754C581.635 118.611 586.574 113.333 591.582 107.92L518.299 106.296C516.539 106.296 515.863 105.078 516.269 102.642C516.404 101.695 517.825 101.086 520.532 100.815H598.687L616.957 82.951C617.498 82.6803 618.107 82.4097 618.784 82.139C619.596 81.8683 620.678 81.6653 622.032 81.53C622.708 81.53 623.385 82.0037 624.062 82.951C624.468 83.763 624.468 84.5073 624.062 85.184L606.198 100.815L660.196 103.251ZM691.079 147.302C691.079 147.708 691.011 148.114 690.876 148.52C690.876 148.791 690.673 149.129 690.267 149.535C683.229 155.354 677.207 160.294 672.2 164.354C667.192 168.279 663.2 171.188 660.223 173.083C645.742 182.827 633.021 187.699 622.059 187.699C619.352 187.699 616.713 186.549 614.142 184.248C611.976 182.083 610.758 179.376 610.488 176.128C610.488 173.421 612.382 169.903 616.172 165.572C617.931 163.677 619.623 161.85 621.247 160.091C623.006 158.196 624.765 156.234 626.525 154.204C625.171 154.204 623.75 154.339 622.262 154.61C620.908 154.745 619.352 154.948 617.593 155.219C614.345 155.625 611.773 155.828 609.879 155.828H609.067C594.045 168.549 581.662 177.008 571.918 181.203C569.617 181.203 568.467 180.865 568.467 180.188C568.467 179.105 569.076 177.887 570.294 176.534C574.218 175.045 579.09 172.474 584.91 168.82C590.594 165.166 597.36 160.294 605.21 154.204C604.262 153.257 603.721 152.242 603.586 151.159C603.586 148.588 605.886 144.798 610.488 139.791C612.788 137.355 614.886 135.596 616.781 134.513C618.675 133.295 620.367 132.551 621.856 132.28C624.021 132.28 625.307 133.295 625.713 135.325C625.713 138.573 623.412 142.295 618.811 146.49C621.653 145.813 624.021 145.34 625.916 145.069C627.81 144.798 629.231 144.595 630.179 144.46C634.239 144.46 636.269 145.881 636.269 148.723C636.269 151.971 633.359 156.234 627.54 161.512C622.126 166.519 619.217 170.647 618.811 173.895C618.811 175.654 619.555 177.414 621.044 179.173C622.397 180.391 624.292 181.203 626.728 181.609C634.712 181.609 646.08 176.805 660.832 167.196C662.591 166.113 665.771 163.88 670.373 160.497C675.109 157.114 681.335 152.377 689.049 146.287H690.267C690.808 146.287 691.079 146.625 691.079 147.302ZM736.995 147.708C736.995 148.52 736.724 149.264 736.183 149.941C729.145 155.896 723.191 160.768 718.319 164.557C713.447 168.346 709.59 171.188 706.748 173.083C693.214 182.15 680.967 186.819 670.005 187.09C660.667 187.09 655.93 182.286 655.795 172.677C655.795 166.722 659.246 159.753 666.148 151.768C673.456 144.189 679.681 140.332 684.824 140.197C686.583 140.197 688.139 140.874 689.493 142.227C690.711 143.31 691.455 144.663 691.726 146.287C691.726 148.723 690.508 151.159 688.072 153.595C686.718 154.678 685.433 155.76 684.215 156.843C682.997 157.79 681.711 158.805 680.358 159.888C676.298 163.407 671.087 166.722 664.727 169.835C664.591 173.083 665.945 175.79 668.787 177.955C671.087 179.444 673.591 180.188 676.298 180.188C683.335 180.188 693.823 175.654 707.763 166.587C709.116 165.64 712.026 163.542 716.492 160.294C720.958 157.046 727.048 152.512 734.762 146.693C735.168 146.558 735.641 146.49 736.183 146.49C736.589 146.49 736.859 146.896 736.995 147.708ZM682.794 148.52C682.794 147.843 681.914 147.302 680.155 146.896C677.854 146.896 674.809 148.994 671.02 153.189C667.23 156.978 665.336 160.362 665.336 163.339C666.012 163.339 667.23 163.001 668.99 162.324C677.786 157.181 682.388 152.58 682.794 148.52Z" fill="#505050"/>
</svg>
