<svg width="1179" height="408" viewBox="0 0 1179 408" fill="none" xmlns="http://www.w3.org/2000/svg">
<rect y="35" width="1179" height="373" rx="43" fill="white"/>
<path d="M483.006 86.6377L447.935 161.791" stroke="#8574A3" stroke-width="8"/>
<path d="M506.805 109.184L493.027 140.497" stroke="#8574A3" stroke-width="8"/>
<circle cx="422.884" cy="176.821" r="108.73" stroke="#8574A3" stroke-width="8"/>
<path d="M316.417 153.023L379.045 277.025" stroke="#8574A3" stroke-width="8"/>
<path d="M332.7 117.951L419.126 284.541" stroke="#8574A3" stroke-width="8"/>
<path d="M351.488 94.153L446.682 283.288" stroke="#8574A3" stroke-width="8"/>
<path d="M376.539 80.3749L476.743 269.51" stroke="#8574A3" stroke-width="8"/>
<path d="M415.368 67.8495L392.823 111.689" stroke="#8574A3" stroke-width="8"/>
<path d="M450.44 71.6071L415.368 153.023" stroke="#8574A3" stroke-width="8"/>
<path d="M519.33 127.972L426.641 171.811" stroke="#8574A3" stroke-width="8"/>
<path d="M530.603 190.599L455.45 226.923" stroke="#8574A3" stroke-width="8"/>
<path d="M467.976 250.722L520.583 225.671" stroke="#8574A3" stroke-width="8"/>
<path d="M529.351 156.781L441.672 198.115" stroke="#8574A3" stroke-width="8"/>
<path d="M359.002 265.752C242.516 254.48 90.957 333.39 320.173 340.905C474.238 337.148 462.964 380.987 451.691 388.502" stroke="#8574A3" stroke-width="8" stroke-linecap="round"/>
<path d="M600.296 275.832V214.062H640.838V219.456H606.386V242.163H635.444V247.209H606.386V275.832H600.296ZM685.893 275.832V214.062H691.983V275.832H685.893ZM766.72 276.267C762.37 276.267 758.426 275.397 754.888 273.657C751.35 271.917 748.305 269.568 745.753 266.61C743.201 263.594 741.229 260.23 739.837 256.518C738.445 252.748 737.749 248.891 737.749 244.947C737.749 240.829 738.474 236.914 739.924 233.202C741.374 229.432 743.404 226.097 746.014 223.197C748.682 220.239 751.785 217.919 755.323 216.237C758.861 214.497 762.689 213.627 766.807 213.627C771.157 213.627 775.101 214.526 778.639 216.324C782.177 218.122 785.193 220.529 787.687 223.545C790.239 226.561 792.211 229.925 793.603 233.637C794.995 237.349 795.691 241.148 795.691 245.034C795.691 249.152 794.966 253.096 793.516 256.866C792.066 260.578 790.036 263.913 787.426 266.871C784.816 269.771 781.742 272.062 778.204 273.744C774.666 275.426 770.838 276.267 766.72 276.267ZM743.839 244.947C743.839 248.311 744.39 251.559 745.492 254.691C746.594 257.765 748.16 260.52 750.19 262.956C752.22 265.334 754.627 267.248 757.411 268.698C760.253 270.09 763.356 270.786 766.72 270.786C770.258 270.786 773.419 270.061 776.203 268.611C779.045 267.103 781.452 265.131 783.424 262.695C785.454 260.201 786.991 257.417 788.035 254.343C789.079 251.269 789.601 248.137 789.601 244.947C789.601 241.583 789.05 238.364 787.948 235.29C786.846 232.216 785.251 229.461 783.163 227.025C781.133 224.589 778.726 222.675 775.942 221.283C773.158 219.891 770.084 219.195 766.72 219.195C763.24 219.195 760.079 219.92 757.237 221.37C754.453 222.82 752.046 224.792 750.016 227.286C748.044 229.722 746.507 232.477 745.405 235.551C744.361 238.625 743.839 241.757 743.839 244.947ZM877.643 225.633C876.773 224.647 875.758 223.777 874.598 223.023C873.438 222.211 872.133 221.515 870.683 220.935C869.233 220.355 867.667 219.891 865.985 219.543C864.361 219.195 862.621 219.021 860.765 219.021C855.371 219.021 851.398 220.065 848.846 222.153C846.352 224.183 845.105 226.967 845.105 230.505C845.105 232.941 845.685 234.855 846.845 236.247C848.063 237.639 849.948 238.77 852.5 239.64C855.052 240.51 858.3 241.409 862.244 242.337C866.652 243.265 870.451 244.367 873.641 245.643C876.831 246.919 879.296 248.659 881.036 250.863C882.776 253.009 883.646 255.938 883.646 259.65C883.646 262.492 883.095 264.957 881.993 267.045C880.891 269.133 879.354 270.873 877.382 272.265C875.41 273.657 873.061 274.701 870.335 275.397C867.609 276.035 864.622 276.354 861.374 276.354C858.184 276.354 855.11 276.035 852.152 275.397C849.252 274.701 846.497 273.715 843.887 272.439C841.277 271.105 838.841 269.423 836.579 267.393L839.624 262.434C840.726 263.594 842.031 264.696 843.539 265.74C845.105 266.726 846.816 267.625 848.672 268.437C850.586 269.249 852.616 269.887 854.762 270.351C856.966 270.757 859.228 270.96 861.548 270.96C866.478 270.96 870.306 270.061 873.032 268.263C875.816 266.465 877.208 263.797 877.208 260.259C877.208 257.707 876.512 255.677 875.12 254.169C873.728 252.603 871.64 251.327 868.856 250.341C866.072 249.355 862.65 248.398 858.59 247.47C854.298 246.484 850.673 245.382 847.715 244.164C844.757 242.946 842.524 241.351 841.016 239.379C839.566 237.349 838.841 234.681 838.841 231.375C838.841 227.547 839.769 224.328 841.625 221.718C843.539 219.05 846.149 217.049 849.455 215.715C852.761 214.323 856.56 213.627 860.852 213.627C863.578 213.627 866.101 213.917 868.421 214.497C870.799 215.019 872.974 215.802 874.946 216.846C876.976 217.89 878.861 219.195 880.601 220.761L877.643 225.633Z" fill="#8574A3"/>
<path d="M649.619 147.708C649.619 148.52 649.348 149.264 648.807 149.941C641.769 155.896 635.815 160.768 630.943 164.557C626.071 168.346 622.214 171.188 619.372 173.083C605.838 182.15 593.591 186.819 582.629 187.09C573.291 187.09 568.554 182.286 568.419 172.677C568.419 166.722 571.87 159.753 578.772 151.768C586.08 144.189 592.305 140.332 597.448 140.197C599.207 140.197 600.763 140.874 602.117 142.227C603.335 143.31 604.079 144.663 604.35 146.287C604.35 148.723 603.132 151.159 600.696 153.595C599.342 154.678 598.057 155.76 596.839 156.843C595.621 157.79 594.335 158.805 592.982 159.888C588.922 163.407 583.711 166.722 577.351 169.835C577.215 173.083 578.569 175.79 581.411 177.955C583.711 179.444 586.215 180.188 588.922 180.188C595.959 180.188 606.447 175.654 620.387 166.587C621.74 165.64 624.65 163.542 629.116 160.294C633.582 157.046 639.672 152.512 647.386 146.693C647.792 146.558 648.265 146.49 648.807 146.49C649.213 146.49 649.483 146.896 649.619 147.708ZM595.418 148.52C595.418 147.843 594.538 147.302 592.779 146.896C590.478 146.896 587.433 148.994 583.644 153.189C579.854 156.978 577.96 160.362 577.96 163.339C578.636 163.339 579.854 163.001 581.614 162.324C590.41 157.181 595.012 152.58 595.418 148.52ZM744.539 147.708C744.539 148.52 744.268 149.264 743.727 149.941C730.599 160.768 721.397 167.94 716.119 171.459C703.803 179.85 693.18 184.045 684.248 184.045C676.669 184.045 672.812 179.985 672.677 171.865C672.677 170.376 672.812 168.549 673.083 166.384C673.489 164.083 674.098 161.377 674.91 158.264C669.767 161.241 664.489 164.354 659.076 167.602C653.798 170.715 648.317 174.166 642.633 177.955C634.648 183.233 630.317 185.872 629.641 185.872C629.505 185.872 628.964 185.601 628.017 185.06C627.205 184.654 626.799 184.18 626.799 183.639C626.799 182.692 627.408 181.135 628.626 178.97C629.708 176.805 631.603 173.827 634.31 170.038C637.152 165.843 639.385 162.527 641.009 160.091C642.768 157.52 643.986 155.693 644.663 154.61C644.121 153.798 643.851 152.648 643.851 151.159C643.851 150.076 644.73 148.926 646.49 147.708C648.384 146.625 649.873 146.016 650.956 145.881C655.286 145.881 657.587 147.64 657.858 151.159C657.858 152.106 655.692 155.557 651.362 161.512C649.332 164.083 647.572 166.249 646.084 168.008C644.73 169.767 643.512 171.188 642.43 172.271C668.143 154.678 684.721 145.881 692.165 145.881C692.841 145.881 693.383 146.761 693.789 148.52C693.789 148.791 691.691 151.294 687.496 156.031C683.571 160.903 681.541 165.504 681.406 169.835C681.406 174.707 684.857 177.211 691.759 177.346C696.901 177.346 705.495 173.286 717.54 165.166C719.84 163.813 728.096 157.723 742.306 146.896C742.712 146.761 743.185 146.693 743.727 146.693C744.133 146.693 744.403 147.031 744.539 147.708ZM846.196 103.251C846.196 105.958 843.489 107.514 838.076 107.92H828.129H785.499C767.229 127.408 757.349 137.896 755.861 139.385C742.192 155.084 735.358 166.249 735.358 172.88C735.358 177.211 738.267 179.376 744.087 179.376C751.53 179.376 761.68 175.045 774.537 166.384C778.867 163.271 783.13 160.159 787.326 157.046C791.656 153.798 796.055 150.415 800.521 146.896C800.656 146.625 801.062 146.49 801.739 146.49C802.145 146.49 802.415 146.964 802.551 147.911C802.551 148.723 802.28 149.467 801.739 150.144C794.701 155.828 788.747 160.632 783.875 164.557C779.138 168.346 775.281 171.256 772.304 173.286C758.906 182.489 747.673 187.158 738.606 187.293C735.358 187.293 732.719 186.075 730.689 183.639C728.523 181.068 727.441 178.023 727.441 174.504C727.441 166.384 734.275 154.61 747.944 139.182C752.951 134.039 757.891 128.897 762.763 123.754C767.635 118.611 772.574 113.333 777.582 107.92L704.299 106.296C702.539 106.296 701.863 105.078 702.269 102.642C702.404 101.695 703.825 101.086 706.532 100.815H784.687L802.957 82.951C803.498 82.6803 804.107 82.4097 804.784 82.139C805.596 81.8683 806.678 81.6653 808.032 81.53C808.708 81.53 809.385 82.0037 810.062 82.951C810.468 83.763 810.468 84.5073 810.062 85.184L792.198 100.815L846.196 103.251ZM877.079 147.302C877.079 147.708 877.011 148.114 876.876 148.52C876.876 148.791 876.673 149.129 876.267 149.535C869.229 155.354 863.207 160.294 858.2 164.354C853.192 168.279 849.2 171.188 846.223 173.083C831.742 182.827 819.021 187.699 808.059 187.699C805.352 187.699 802.713 186.549 800.142 184.248C797.976 182.083 796.758 179.376 796.488 176.128C796.488 173.421 798.382 169.903 802.172 165.572C803.931 163.677 805.623 161.85 807.247 160.091C809.006 158.196 810.765 156.234 812.525 154.204C811.171 154.204 809.75 154.339 808.262 154.61C806.908 154.745 805.352 154.948 803.593 155.219C800.345 155.625 797.773 155.828 795.879 155.828H795.067C780.045 168.549 767.662 177.008 757.918 181.203C755.617 181.203 754.467 180.865 754.467 180.188C754.467 179.105 755.076 177.887 756.294 176.534C760.218 175.045 765.09 172.474 770.91 168.82C776.594 165.166 783.36 160.294 791.21 154.204C790.262 153.257 789.721 152.242 789.586 151.159C789.586 148.588 791.886 144.798 796.488 139.791C798.788 137.355 800.886 135.596 802.781 134.513C804.675 133.295 806.367 132.551 807.856 132.28C810.021 132.28 811.307 133.295 811.713 135.325C811.713 138.573 809.412 142.295 804.811 146.49C807.653 145.813 810.021 145.34 811.916 145.069C813.81 144.798 815.231 144.595 816.179 144.46C820.239 144.46 822.269 145.881 822.269 148.723C822.269 151.971 819.359 156.234 813.54 161.512C808.126 166.519 805.217 170.647 804.811 173.895C804.811 175.654 805.555 177.414 807.044 179.173C808.397 180.391 810.292 181.203 812.728 181.609C820.712 181.609 832.08 176.805 846.832 167.196C848.591 166.113 851.771 163.88 856.373 160.497C861.109 157.114 867.335 152.377 875.049 146.287H876.267C876.808 146.287 877.079 146.625 877.079 147.302ZM922.995 147.708C922.995 148.52 922.724 149.264 922.183 149.941C915.145 155.896 909.191 160.768 904.319 164.557C899.447 168.346 895.59 171.188 892.748 173.083C879.214 182.15 866.967 186.819 856.005 187.09C846.667 187.09 841.93 182.286 841.795 172.677C841.795 166.722 845.246 159.753 852.148 151.768C859.456 144.189 865.681 140.332 870.824 140.197C872.583 140.197 874.139 140.874 875.493 142.227C876.711 143.31 877.455 144.663 877.726 146.287C877.726 148.723 876.508 151.159 874.072 153.595C872.718 154.678 871.433 155.76 870.215 156.843C868.997 157.79 867.711 158.805 866.358 159.888C862.298 163.407 857.087 166.722 850.727 169.835C850.591 173.083 851.945 175.79 854.787 177.955C857.087 179.444 859.591 180.188 862.298 180.188C869.335 180.188 879.823 175.654 893.763 166.587C895.116 165.64 898.026 163.542 902.492 160.294C906.958 157.046 913.048 152.512 920.762 146.693C921.168 146.558 921.641 146.49 922.183 146.49C922.589 146.49 922.859 146.896 922.995 147.708ZM868.794 148.52C868.794 147.843 867.914 147.302 866.155 146.896C863.854 146.896 860.809 148.994 857.02 153.189C853.23 156.978 851.336 160.362 851.336 163.339C852.012 163.339 853.23 163.001 854.99 162.324C863.786 157.181 868.388 152.58 868.794 148.52Z" fill="#505050"/>
</svg>
